<svg width="80" height="80" viewBox="0 0 80 80" fill="none" xmlns="http://www.w3.org/2000/svg">
<path fill-rule="evenodd" clip-rule="evenodd" d="M52.956 10.9034C46.6857 8.10946 39.6802 7.41731 32.9844 8.93015C26.2885 10.443 20.2611 14.0797 15.801 19.298C11.3409 24.5163 8.68718 31.0365 8.23551 37.8863C7.78384 44.736 9.55847 51.5483 13.2947 57.307C17.031 63.0658 22.5287 67.4625 28.9679 69.8414C35.4071 72.2204 42.4428 72.4541 49.0257 70.5078C55.6086 68.5614 61.386 64.5392 65.4962 59.0411C69.6064 53.5431 71.8293 46.8636 71.8332 39.999V36.9332C71.8332 36.1048 72.5048 35.4332 73.3332 35.4332C74.1616 35.4332 74.8332 36.1048 74.8332 36.9332V39.9999C74.8289 47.5114 72.3966 54.8212 67.899 60.8374C63.4014 66.8536 57.0796 71.2549 49.8763 73.3846C42.673 75.5144 34.9743 75.2587 27.9282 72.6555C20.8822 70.0524 14.8664 65.2413 10.778 58.9398C6.68965 52.6384 4.74778 45.1841 5.24201 37.6889C5.73625 30.1936 8.64011 23.0589 13.5205 17.3489C18.4009 11.6388 24.9964 7.65931 32.3232 6.00391C39.6501 4.3485 47.3158 5.10587 54.177 8.16307C54.9337 8.50024 55.2738 9.387 54.9367 10.1437C54.5995 10.9004 53.7127 11.2405 52.956 10.9034Z" fill="#659127"/>
<path fill-rule="evenodd" clip-rule="evenodd" d="M74.3935 12.2723C74.9795 12.8578 74.98 13.8075 74.3945 14.3936L41.0612 47.7603C40.7799 48.0418 40.3983 48.2001 40.0004 48.2002C39.6024 48.2003 39.2207 48.0422 38.9393 47.7608L28.9393 37.7608C28.3536 37.175 28.3536 36.2253 28.9393 35.6395C29.5251 35.0537 30.4749 35.0537 31.0607 35.6395L39.9995 44.5783L72.2721 12.2734C72.8576 11.6873 73.8074 11.6868 74.3935 12.2723Z" fill="#659127"/>
</svg>
