<svg width="20" height="18" viewBox="0 0 20 18" fill="none" xmlns="http://www.w3.org/2000/svg">
<path d="M19.204 2.24359H0.696517C0.298507 2.24359 0 1.91667 0 1.37179C0 0.826923 0.298508 0.5 0.79602 0.5H19.204C19.602 0.5 20 0.826923 20 1.37179C20 1.91667 19.602 2.24359 19.204 2.24359ZM19.204 9.8718H0.696517C0.298507 9.8718 0 9.54487 0 9C0 8.45513 0.298508 8.1282 0.79602 8.1282H19.204C19.602 8.1282 20 8.45513 20 9C20 9.54487 19.602 9.8718 19.204 9.8718ZM19.204 17.5H0.696517C0.298507 17.5 0 17.1731 0 16.6282C0 16.0833 0.298508 15.7564 0.79602 15.7564H19.204C19.602 15.7564 20 16.0833 20 16.6282C20 17.1731 19.602 17.5 19.204 17.5Z" fill="white"/>
</svg>
