<svg width="9" height="9" viewBox="0 0 9 9" fill="none" xmlns="http://www.w3.org/2000/svg">
<path d="M5 4.3C5 4.22044 4.94732 4.14413 4.85355 4.08787C4.75978 4.03161 4.63261 4 4.5 4C4.36739 4 4.24022 4.03161 4.14645 4.08787C4.05268 4.14413 4 4.22044 4 4.3V6.7C4 6.77956 4.05268 6.85587 4.14645 6.91213C4.24022 6.96839 4.36739 7 4.5 7C4.63261 7 4.75978 6.96839 4.85355 6.91213C4.94732 6.85587 5 6.77956 5 6.7V4.3Z" fill="black"/>
<path fill-rule="evenodd" clip-rule="evenodd" d="M4.5 0C2.01474 0 0 2.01474 0 4.5C0 6.98526 2.01474 9 4.5 9C6.98526 9 9 6.98526 9 4.5C9 2.01474 6.98526 0 4.5 0ZM0.627907 4.5C0.627907 3.47306 1.03586 2.48818 1.76202 1.76202C2.48818 1.03586 3.47306 0.627907 4.5 0.627907C5.52694 0.627907 6.51182 1.03586 7.23798 1.76202C7.96414 2.48818 8.37209 3.47306 8.37209 4.5C8.37209 5.52694 7.96414 6.51182 7.23798 7.23798C6.51182 7.96414 5.52694 8.37209 4.5 8.37209C3.47306 8.37209 2.48818 7.96414 1.76202 7.23798C1.03586 6.51182 0.627907 5.52694 0.627907 4.5Z" fill="black"/>
<path d="M5 2.5C5 2.63261 4.94732 2.75979 4.85355 2.85355C4.75979 2.94732 4.63261 3 4.5 3C4.36739 3 4.24021 2.94732 4.14645 2.85355C4.05268 2.75979 4 2.63261 4 2.5C4 2.36739 4.05268 2.24021 4.14645 2.14645C4.24021 2.05268 4.36739 2 4.5 2C4.63261 2 4.75979 2.05268 4.85355 2.14645C4.94732 2.24021 5 2.36739 5 2.5Z" fill="black"/>
</svg>
