<svg width="42" height="46" viewBox="0 0 42 46" fill="none" xmlns="http://www.w3.org/2000/svg">
<path d="M22.1108 0.376764L39.9236 10.4707C40.3592 10.7175 40.7209 11.0725 40.9724 11.5C41.2239 11.9275 41.3563 12.4124 41.3563 12.9061V33.0939C41.3563 33.5876 41.2239 34.0725 40.9724 34.5C40.7209 34.9275 40.3592 35.2825 39.9236 35.5293L22.1108 45.6232C21.6752 45.8701 21.1811 46 20.6781 46C20.1752 46 19.6811 45.8701 19.2455 45.6232L1.43263 35.5293C0.997068 35.2825 0.63537 34.9275 0.383891 34.5C0.132412 34.0725 1.27768e-05 33.5876 0 33.0939V12.9061C1.27768e-05 12.4124 0.132412 11.9275 0.383891 11.5C0.63537 11.0725 0.997068 10.7175 1.43263 10.4707L19.2455 0.376764C19.6811 0.129941 20.1752 0 20.6781 0C21.1811 0 21.6752 0.129941 22.1108 0.376764Z" fill="#3B3B3B"/>
<path d="M31.1239 34.041H27.1066C26.8936 34.041 26.6892 33.9579 26.5385 33.81C26.3878 33.6621 26.3032 33.4615 26.3032 33.2524V31.6752C26.3032 31.4661 26.3878 31.2655 26.5385 31.1176C26.6892 30.9698 26.8936 30.8867 27.1066 30.8867H31.1239C31.337 30.8867 31.5413 30.9698 31.692 31.1176C31.8427 31.2655 31.9273 31.4661 31.9273 31.6752V33.2524C31.9273 33.4615 31.8427 33.6621 31.692 33.81C31.5413 33.9579 31.337 34.041 31.1239 34.041ZM27.9101 30.0981H23.8928C23.6798 30.0981 23.4754 30.015 23.3247 29.8671C23.174 29.7193 23.0894 29.5187 23.0894 29.3095V27.7324C23.0894 27.5232 23.174 27.3227 23.3247 27.1748C23.4754 27.0269 23.6798 26.9438 23.8928 26.9438H27.9101C28.1232 26.9438 28.3275 27.0269 28.4782 27.1748C28.6289 27.3227 28.7135 27.5232 28.7135 27.7324V29.3095C28.7135 29.5187 28.6289 29.7193 28.4782 29.8671C28.3275 30.015 28.1232 30.0981 27.9101 30.0981ZM21.4825 30.0981H17.4652C17.2521 30.0981 17.0478 30.015 16.8971 29.8671C16.7464 29.7193 16.6618 29.5187 16.6618 29.3095V27.7324C16.6618 27.5232 16.7464 27.3227 16.8971 27.1748C17.0478 27.0269 17.2521 26.9438 17.4652 26.9438H21.4825C21.6956 26.9438 21.8999 27.0269 22.0506 27.1748C22.2013 27.3227 22.2859 27.5232 22.2859 27.7324V29.3095C22.2859 29.5187 22.2013 29.7193 22.0506 29.8671C21.8999 30.015 21.6956 30.0981 21.4825 30.0981ZM24.6963 34.041H20.679C20.4659 34.041 20.2616 33.9579 20.1109 33.81C19.9602 33.6621 19.8756 33.4615 19.8756 33.2524V31.6752C19.8756 31.4661 19.9602 31.2655 20.1109 31.1176C20.2616 30.9698 20.4659 30.8867 20.679 30.8867H24.6963C24.9094 30.8867 25.1137 30.9698 25.2644 31.1176C25.4151 31.2655 25.4997 31.4661 25.4997 31.6752V33.2524C25.4997 33.4615 25.4151 33.6621 25.2644 33.81C25.1137 33.9579 24.9094 34.041 24.6963 34.041ZM18.2687 34.041H14.2514C14.0383 34.041 13.834 33.9579 13.6833 33.81C13.5326 33.6621 13.448 33.4615 13.448 33.2524V31.6752C13.448 31.4661 13.5326 31.2655 13.6833 31.1176C13.834 30.9698 14.0383 30.8867 14.2514 30.8867H18.2687C18.4818 30.8867 18.6861 30.9698 18.8368 31.1176C18.9875 31.2655 19.0721 31.4661 19.0721 31.6752V33.2524C19.0721 33.4615 18.9875 33.6621 18.8368 33.81C18.6861 33.9579 18.4818 34.041 18.2687 34.041ZM20.679 22.2124V18.2695H12.6445V23.7895H19.0721C19.0721 22.9197 19.7928 22.2124 20.679 22.2124Z" fill="white"/>
<path d="M15.8578 28.519H14.6527C14.5461 28.519 14.4439 28.4774 14.3686 28.4035C14.2933 28.3296 14.2509 28.2293 14.2509 28.1247C14.2509 28.0201 14.2933 27.9198 14.3686 27.8459C14.4439 27.772 14.5461 27.7304 14.6527 27.7304H15.8578C15.8578 26.8606 16.5785 26.1533 17.4647 26.1533H19.295C19.1503 25.9146 19.0732 25.6424 19.0716 25.3647V24.5761H12.644C12.4309 24.5761 12.2266 24.493 12.0759 24.3452C11.9252 24.1973 11.8406 23.9967 11.8406 23.7876V18.2676C11.8406 18.0584 11.9252 17.8578 12.0759 17.71C12.2266 17.5621 12.4309 17.479 12.644 17.479H20.6785C20.8916 17.479 21.096 17.5621 21.2467 17.71C21.3973 17.8578 21.482 18.0584 21.482 18.2676V22.2104H23.8449C23.9454 19.5372 23.7156 16.8063 23.1355 14.4193L23.8072 13.1C23.8684 12.9799 23.8973 12.8463 23.8911 12.7121C23.8849 12.5778 23.8439 12.4474 23.772 12.3331C23.7 12.2188 23.5995 12.1244 23.48 12.0589C23.3604 11.9935 23.2258 11.9591 23.0889 11.959H10.2337C10.0968 11.9591 9.96217 11.9935 9.84262 12.0589C9.72307 12.1244 9.62255 12.2188 9.5506 12.3331C9.47864 12.4474 9.43764 12.5778 9.43148 12.7121C9.42532 12.8463 9.45421 12.9799 9.5154 13.1L10.1871 14.4185C9.19884 18.4907 9.19884 23.5644 10.1871 27.6366L9.5154 28.9551C9.45421 29.0753 9.42532 29.2088 9.43148 29.343C9.43764 29.4773 9.47864 29.6077 9.5506 29.722C9.62255 29.8363 9.72307 29.9307 9.84262 29.9962C9.96217 30.0617 10.0968 30.0961 10.2337 30.0961H16.0812C15.9365 29.8575 15.8594 29.5853 15.8578 29.3076M21.0803 13.5361H21.8837C21.9903 13.5361 22.0924 13.5777 22.1678 13.6516C22.2431 13.7256 22.2854 13.8258 22.2854 13.9304C22.2854 14.035 22.2431 14.1353 22.1678 14.2092C22.0924 14.2832 21.9903 14.3247 21.8837 14.3247H21.0803C20.9737 14.3247 20.8715 14.2832 20.7962 14.2092C20.7209 14.1353 20.6785 14.035 20.6785 13.9304C20.6785 13.8258 20.7209 13.7256 20.7962 13.6516C20.8715 13.5777 20.9737 13.5361 21.0803 13.5361ZM17.8665 13.5361H18.6699C18.7765 13.5361 18.8786 13.5777 18.954 13.6516C19.0293 13.7256 19.0716 13.8258 19.0716 13.9304C19.0716 14.035 19.0293 14.1353 18.954 14.2092C18.8786 14.2832 18.7765 14.3247 18.6699 14.3247H17.8665C17.7599 14.3247 17.6577 14.2832 17.5824 14.2092C17.5071 14.1353 17.4647 14.035 17.4647 13.9304C17.4647 13.8258 17.5071 13.7256 17.5824 13.6516C17.6577 13.5777 17.7599 13.5361 17.8665 13.5361ZM14.6527 13.5361H15.4561C15.5627 13.5361 15.6648 13.5777 15.7402 13.6516C15.8155 13.7256 15.8578 13.8258 15.8578 13.9304C15.8578 14.035 15.8155 14.1353 15.7402 14.2092C15.6648 14.2832 15.5627 14.3247 15.4561 14.3247H14.6527C14.5461 14.3247 14.4439 14.2832 14.3686 14.2092C14.2933 14.1353 14.2509 14.035 14.2509 13.9304C14.2509 13.8258 14.2933 13.7256 14.3686 13.6516C14.4439 13.5777 14.5461 13.5361 14.6527 13.5361ZM11.4389 13.5361H12.2423C12.3489 13.5361 12.451 13.5777 12.5264 13.6516C12.6017 13.7256 12.644 13.8258 12.644 13.9304C12.644 14.035 12.6017 14.1353 12.5264 14.2092C12.451 14.2832 12.3489 14.3247 12.2423 14.3247H11.4389C11.3323 14.3247 11.2301 14.2832 11.1548 14.2092C11.0795 14.1353 11.0371 14.035 11.0371 13.9304C11.0371 13.8258 11.0795 13.7256 11.1548 13.6516C11.2301 13.5777 11.3323 13.5361 11.4389 13.5361ZM12.2423 28.519H11.4389C11.3323 28.519 11.2301 28.4774 11.1548 28.4035C11.0795 28.3296 11.0371 28.2293 11.0371 28.1247C11.0371 28.0201 11.0795 27.9198 11.1548 27.8459C11.2301 27.772 11.3323 27.7304 11.4389 27.7304H12.2423C12.3489 27.7304 12.451 27.772 12.5264 27.8459C12.6017 27.9198 12.644 28.0201 12.644 28.1247C12.644 28.2293 12.6017 28.3296 12.5264 28.4035C12.451 28.4774 12.3489 28.519 12.2423 28.519Z" fill="#FFB870"/>
<path d="M24.6962 26.1553H20.6789C20.4659 26.1553 20.2615 26.0722 20.1108 25.9243C19.9601 25.7764 19.8755 25.5758 19.8755 25.3667V23.7895C19.8755 23.5804 19.9601 23.3798 20.1108 23.2319C20.2615 23.0841 20.4659 23.001 20.6789 23.001H24.6962C24.9093 23.001 25.1136 23.0841 25.2643 23.2319C25.415 23.3798 25.4996 23.5804 25.4996 23.7895V25.3667C25.4996 25.5758 25.415 25.7764 25.2643 25.9243C25.1136 26.0722 24.9093 26.1553 24.6962 26.1553Z" fill="#FFB870"/>
</svg>
