<svg width="15" height="22" viewBox="0 0 15 22" fill="none" xmlns="http://www.w3.org/2000/svg">
<path d="M7.5 0.5C3.36448 0.5 0 3.91177 0 8.10537C0 13.3098 6.71176 20.9501 6.99752 21.2728C7.26593 21.576 7.73455 21.5755 8.00248 21.2728C8.28824 20.9501 15 13.3098 15 8.10537C14.9999 3.91177 11.6355 0.5 7.5 0.5ZM7.5 11.9318C5.41932 11.9318 3.7266 10.2153 3.7266 8.10537C3.7266 5.99544 5.41936 4.27894 7.5 4.27894C9.58064 4.27894 11.2734 5.99549 11.2734 8.10541C11.2734 10.2153 9.58064 11.9318 7.5 11.9318Z" fill="#FFB870"/>
</svg>
